<svg width="137" height="137" viewBox="0 0 137 137" fill="none" xmlns="http://www.w3.org/2000/svg">
<path d="M68.4997 71.3542C63.2009 71.3542 58.1191 73.4592 54.3723 77.206C50.6255 80.9528 48.5205 86.0346 48.5205 91.3334C48.5205 96.6322 50.6255 101.714 54.3723 105.461C58.1191 109.208 63.2009 111.313 68.4997 111.313C73.7985 111.313 78.8803 109.208 82.6271 105.461C86.3739 101.714 88.4788 96.6322 88.4788 91.3334C88.4788 86.0346 86.3739 80.9528 82.6271 77.206C78.8803 73.4592 73.7985 71.3542 68.4997 71.3542ZM59.9372 91.3334C59.9372 89.0625 60.8393 86.8846 62.4451 85.2788C64.0509 83.673 66.2288 82.7709 68.4997 82.7709C70.7706 82.7709 72.9485 83.673 74.5543 85.2788C76.1601 86.8846 77.0622 89.0625 77.0622 91.3334C77.0622 93.6043 76.1601 95.7822 74.5543 97.388C72.9485 98.9938 70.7706 99.8959 68.4997 99.8959C66.2288 99.8959 64.0509 98.9938 62.4451 97.388C60.8393 95.7822 59.9372 93.6043 59.9372 91.3334Z" fill="black"/>
<g filter="url(#filter0_d_352_262)">
<path d="M100.044 29.2038L81.8975 3.76172L15.1728 57.0661L11.4738 57.0262V57.0833H8.5625V125.583H128.438V57.0833H122.946L112.02 25.1223L100.044 29.2038ZM110.884 57.0833H53.6412L96.2767 42.5498L104.965 39.7699L110.884 57.0833ZM88.7646 33.0512L44.7533 48.0527L79.6084 20.2074L88.7646 33.0512ZM19.9792 103.715V78.9405C22.3875 78.0871 24.575 76.7069 26.3822 74.9007C28.1894 73.0945 29.5707 70.9078 30.4254 68.4999H106.575C107.429 70.9086 108.81 73.0963 110.617 74.9035C112.424 76.7107 114.612 78.0918 117.021 78.9462V103.72C114.612 104.575 112.424 105.956 110.617 107.763C108.81 109.57 107.429 111.758 106.575 114.167H30.4368C29.5816 111.756 28.199 109.566 26.3897 107.758C24.5805 105.95 22.3904 104.569 19.9792 103.715Z" fill="black"/>
</g>
<defs>
<filter id="filter0_d_352_262" x="4.5625" y="3.76172" width="127.875" height="129.822" filterUnits="userSpaceOnUse" color-interpolation-filters="sRGB">
<feFlood flood-opacity="0" result="BackgroundImageFix"/>
<feColorMatrix in="SourceAlpha" type="matrix" values="0 0 0 0 0 0 0 0 0 0 0 0 0 0 0 0 0 0 127 0" result="hardAlpha"/>
<feOffset dy="4"/>
<feGaussianBlur stdDeviation="2"/>
<feComposite in2="hardAlpha" operator="out"/>
<feColorMatrix type="matrix" values="0 0 0 0 0 0 0 0 0 0 0 0 0 0 0 0 0 0 0.25 0"/>
<feBlend mode="normal" in2="BackgroundImageFix" result="effect1_dropShadow_352_262"/>
<feBlend mode="normal" in="SourceGraphic" in2="effect1_dropShadow_352_262" result="shape"/>
</filter>
</defs>
</svg>
