<svg width="137" height="137" viewBox="0 0 137 137" fill="none" xmlns="http://www.w3.org/2000/svg">
<path d="M124.156 68.5C124.156 37.7633 99.2367 12.8438 68.5 12.8438C37.7633 12.8438 12.8438 37.7633 12.8438 68.5C12.8438 99.2367 37.7633 124.156 68.5 124.156C99.2367 124.156 124.156 99.2367 124.156 68.5Z" stroke="black" stroke-width="8" stroke-miterlimit="10"/>
<g filter="url(#filter0_d_352_268)">
<path d="M119.225 46.0609C114.928 46.0876 115.351 54.016 109.996 50.2752C108.008 48.8892 106.786 46.8743 104.289 46.2616C102.108 45.7264 99.874 46.283 97.72 46.6549C95.2717 47.0777 92.3684 47.2677 90.5115 49.122C88.716 50.9067 87.7661 53.3015 85.8556 55.097C82.1603 58.5755 80.6004 62.3724 82.9925 67.2905C85.2937 72.0186 90.1074 74.5847 95.3011 74.2476C100.404 73.9077 105.705 70.9483 105.557 78.3629C105.504 80.9852 106.052 82.8047 106.858 85.2423C107.604 87.49 107.553 89.6681 107.725 91.988C108.04 96.3227 108.838 101.182 110.989 105.011L115.003 99.3491C115.498 98.648 116.533 97.666 116.78 96.8392C117.216 95.3755 116.357 92.8603 116.258 91.22C116.159 89.5798 116.207 87.9181 115.955 86.2779C115.602 83.9794 114.243 81.8254 114.056 79.5536C113.71 75.3232 114.484 71.9464 111.225 68.409C108.078 64.9974 103.465 64.1786 99.0579 64.8716C96.837 65.2195 87.8972 66.6483 91.4854 61.5724C92.1945 60.5743 93.4334 59.7555 94.2308 58.8056C94.9238 57.9788 95.5259 56.459 96.3393 55.8141C97.1527 55.1692 100.888 54.428 101.958 54.7572C103.029 55.0863 104.145 56.6302 105.073 57.3152C106.789 58.6073 108.79 59.4665 110.909 59.8197C114.564 60.3549 122.206 58.2303 122.147 53.5424C122.137 51.2947 120.049 48.164 119.225 46.0609ZM76.9158 84.6349C75.4896 78.6305 67.3312 76.6236 62.9322 73.3672C60.4036 71.4942 58.1532 68.6017 54.8326 68.3662C53.302 68.2565 52.0203 68.5883 50.5032 68.1949C49.1118 67.8364 48.02 67.0872 46.5377 67.2825C43.7682 67.6464 42.0209 70.6058 39.0455 70.2044C36.2225 69.8245 33.3139 66.5226 32.6718 63.8334C31.8476 60.3763 34.5823 59.2552 37.5122 58.9474C38.7351 58.819 40.1078 58.6799 41.2824 59.1267C42.829 59.702 43.5595 61.2165 44.9482 61.9818C47.5518 63.408 48.0789 61.1282 47.6802 58.8163C47.0835 55.3539 46.3878 53.941 49.4757 51.5596C51.6163 49.9167 53.4465 48.7286 53.104 45.7772C52.9007 44.0433 51.9508 43.2593 52.8364 41.5335C53.5081 40.2196 55.3517 39.0343 56.5531 38.2503C59.6543 36.2274 69.8384 36.3772 65.6775 30.7153C64.4547 29.0536 62.199 26.0835 60.0584 25.6768C57.3826 25.1711 56.1946 28.1572 54.3295 29.4737C52.403 30.8357 48.6515 32.3823 46.7223 30.2764C44.1268 27.4428 48.4428 26.5116 49.3981 24.5342C50.3533 22.5568 47.1852 18.8187 45.4888 17.8715L37.5122 26.8167C37.2831 28.3147 37.3629 29.8438 37.7467 31.3099C38.1304 32.776 38.8101 34.148 39.7439 35.3417C41.3306 37.3833 43.8565 38.0389 43.9716 40.827C44.084 43.5028 43.6665 44.8728 41.9166 46.7539C41.1593 47.5566 40.6242 48.6965 39.8536 49.4484C38.909 50.3662 39.2595 50.0852 37.7852 50.3368C35.0131 50.805 32.653 51.5275 29.9746 52.266C25.5114 53.4995 25.0993 46.208 23.0657 43.3476L16.3763 48.75C16.304 49.6357 17.4733 51.2653 17.7917 52.2285C19.6193 57.7326 23.3065 61.9898 25.688 67.2557C28.1952 72.8321 34.9274 71.2855 37.9002 76.1714C40.5386 80.5062 37.721 85.9942 39.6957 90.5324C41.1299 93.8262 44.5121 94.546 46.8454 96.9542C49.2295 99.3865 49.1787 102.715 49.5426 105.881C49.953 109.604 50.619 113.294 51.536 116.926C51.8598 118.181 52.1568 119.84 53.0157 120.876C53.6044 121.587 55.6246 122.2 54.8085 122.436C55.9484 122.623 57.9793 123.688 58.9292 122.907C60.1815 121.879 59.847 118.716 60.0637 117.287C60.7139 113.033 62.8439 108.872 65.7177 105.688C68.5567 102.547 72.4472 100.419 74.8447 96.8579C77.1807 93.3847 77.8844 88.6994 76.9158 84.6349ZM67.9814 91.6776C66.3759 94.5434 62.8011 96.4619 60.5026 98.739C59.8791 99.3571 58.5519 101.498 57.7706 101.035C57.2113 100.703 57.0214 97.9255 56.8153 97.2887C55.7524 94.0819 53.7232 91.2825 51.0062 89.2747C50.1687 88.6406 48.0923 87.8164 47.6133 86.9468C47.0782 86.0023 47.5598 83.7733 47.5785 82.7458C47.608 81.2474 46.9256 78.7562 47.2949 77.3943C47.723 75.8236 46.8989 76.7708 48.3037 76.4604C49.0449 76.2945 52.106 76.8324 53.0291 77.025C54.4954 77.33 55.3035 78.2425 56.4595 79.1656C59.4991 81.6033 62.8465 83.4897 66.2528 85.3574C68.8911 86.8184 69.6671 88.6673 67.9814 91.6776ZM49.3579 17.9518C50.6263 19.1907 51.8196 20.657 53.7114 20.7801C55.5015 20.9005 57.1899 19.9319 58.7526 21.1494C60.4865 22.4872 61.7361 24.181 64.0373 24.5984C66.2635 25.0025 68.6209 23.702 69.1721 21.425C69.7073 19.2549 68.554 16.8949 68.4844 14.7168C68.4844 14.4144 68.6476 13.0712 68.4389 12.8437C68.2837 12.6725 66.9887 12.8651 66.7906 12.8705C65.3404 12.9133 63.8937 13.0132 62.4505 13.1702C57.1895 13.7396 52.0371 15.0597 47.1504 17.0902C47.8006 17.5397 48.6167 17.719 49.3579 17.9518ZM95.3653 32.9843C97.637 32.9843 99.9436 31.9675 99.2104 29.3399C98.595 27.1378 97.5461 24.7483 94.9934 25.9363C93.3692 26.6909 91.068 28.6121 90.878 30.5173C90.6613 32.6793 93.8508 32.9843 95.3653 32.9843ZM93.5511 44.4822C95.871 45.8709 99.3121 45.218 101.062 43.2353C102.429 41.6833 103.235 38.9888 105.694 38.9915C106.776 38.9892 107.816 39.4131 108.589 40.1715C109.606 41.2231 109.405 42.2104 109.622 43.5269C110.106 46.4836 113.277 43.6955 114.104 42.5503C114.639 41.8037 115.364 40.6959 115.121 39.7246C114.896 38.8175 113.836 37.8516 113.365 37.0194C111.99 34.6112 110.858 31.8097 108.798 29.8644C106.815 27.9913 104.377 28.2081 102.496 30.1534C100.955 31.7588 99.1649 33.0298 98.1107 34.9831C97.3668 36.3558 96.5293 37.0114 95.0228 37.3673C94.1933 37.5626 93.2461 37.6348 92.5504 38.1914C90.6131 39.7166 91.7155 43.3797 93.5511 44.4822Z" fill="black"/>
</g>
<defs>
<filter id="filter0_d_352_268" x="12.373" y="12.7729" width="113.774" height="118.417" filterUnits="userSpaceOnUse" color-interpolation-filters="sRGB">
<feFlood flood-opacity="0" result="BackgroundImageFix"/>
<feColorMatrix in="SourceAlpha" type="matrix" values="0 0 0 0 0 0 0 0 0 0 0 0 0 0 0 0 0 0 127 0" result="hardAlpha"/>
<feOffset dy="4"/>
<feGaussianBlur stdDeviation="2"/>
<feComposite in2="hardAlpha" operator="out"/>
<feColorMatrix type="matrix" values="0 0 0 0 0 0 0 0 0 0 0 0 0 0 0 0 0 0 0.25 0"/>
<feBlend mode="normal" in2="BackgroundImageFix" result="effect1_dropShadow_352_268"/>
<feBlend mode="normal" in="SourceGraphic" in2="effect1_dropShadow_352_268" result="shape"/>
</filter>
</defs>
</svg>
