<svg width="137" height="137" viewBox="0 0 137 137" fill="none" xmlns="http://www.w3.org/2000/svg">
<g clip-path="url(#clip0_352_274)">
<g filter="url(#filter0_d_352_274)">
<path d="M68.4999 8.5625H88.4805C90.056 8.5625 91.3318 9.83831 91.3318 11.4181V22.8319C91.3318 23.5885 91.0316 24.3142 90.4969 24.8496C89.9623 25.385 89.2371 25.6864 88.4805 25.6875H72.7812V30.2042C82.2008 31.2574 90.9018 35.7455 97.2204 42.8105C103.539 49.8755 107.032 59.0216 107.031 68.5H115.594C119 68.5 122.267 69.8532 124.676 72.2618C127.084 74.6705 128.437 77.9374 128.437 81.3438V119.875C128.437 121.01 127.986 122.099 127.183 122.902C126.381 123.705 125.292 124.156 124.156 124.156H81.3437V107.031C81.3437 105.896 80.8926 104.807 80.0897 104.004C79.2868 103.201 78.1979 102.75 77.0624 102.75H61.4358C61.8631 100.636 62.0782 98.4848 62.078 96.3281C62.0889 88.7653 59.4192 81.4434 54.543 75.6625C55.2608 74.8747 55.6578 73.847 55.6562 72.7812V59.9375C55.6562 58.802 55.2051 57.7131 54.4022 56.9102C53.5993 56.1073 52.5104 55.6562 51.3749 55.6562C50.2395 55.6562 49.1505 56.1073 48.3476 56.9102C47.5447 57.7131 47.0937 58.802 47.0937 59.9375V69.1636C42.0376 65.967 36.1858 64.2537 30.2041 64.2188C31.1777 55.5327 35.0743 47.4353 41.2548 41.2549C47.4352 35.0744 55.5326 31.1778 64.2187 30.2042V12.8438C64.2187 11.7083 64.6697 10.6193 65.4726 9.81645C66.2755 9.01356 67.3645 8.5625 68.4999 8.5625ZM89.9062 59.9375C89.9062 58.802 89.4551 57.7131 88.6522 56.9102C87.8493 56.1073 86.7604 55.6562 85.6249 55.6562C84.4895 55.6562 83.4005 56.1073 82.5976 56.9102C81.7947 57.7131 81.3437 58.802 81.3437 59.9375V72.7812C81.3437 73.9167 81.7947 75.0057 82.5976 75.8086C83.4005 76.6114 84.4895 77.0625 85.6249 77.0625C86.7604 77.0625 87.8493 76.6114 88.6522 75.8086C89.4551 75.0057 89.9062 73.9167 89.9062 72.7812V59.9375ZM72.7812 72.7812V59.9375C72.7812 58.802 72.3301 57.7131 71.5272 56.9102C70.7243 56.1073 69.6354 55.6562 68.4999 55.6562C67.3645 55.6562 66.2755 56.1073 65.4726 56.9102C64.6697 57.7131 64.2187 58.802 64.2187 59.9375V72.7812C64.2187 73.9167 64.6697 75.0057 65.4726 75.8086C66.2755 76.6114 67.3645 77.0625 68.4999 77.0625C69.6354 77.0625 70.7243 76.6114 71.5272 75.8086C72.3301 75.0057 72.7812 73.9167 72.7812 72.7812ZM107.031 89.9062C107.031 88.7708 106.58 87.6818 105.777 86.8789C104.974 86.0761 103.885 85.625 102.75 85.625C101.614 85.625 100.525 86.0761 99.7226 86.8789C98.9197 87.6818 98.4687 88.7708 98.4687 89.9062V102.75C98.4687 103.885 98.9197 104.974 99.7226 105.777C100.525 106.58 101.614 107.031 102.75 107.031C103.885 107.031 104.974 106.58 105.777 105.777C106.58 104.974 107.031 103.885 107.031 102.75V89.9062ZM29.9687 122.016C35.5172 122.016 40.6547 120.26 44.8503 117.263L59.0512 131.464C59.8586 132.244 60.9401 132.676 62.0626 132.666C63.1852 132.656 64.2589 132.206 65.0527 131.412C65.8465 130.618 66.2968 129.545 66.3065 128.422C66.3163 127.3 65.8847 126.218 65.1049 125.411L50.9083 111.214C54.2453 106.521 55.9087 100.843 55.6314 95.0911C55.3541 89.3394 53.1522 83.8476 49.3792 79.4974C45.6062 75.1472 40.4809 72.1909 34.8261 71.1031C29.1713 70.0153 23.315 70.8591 18.1974 73.499C13.0797 76.139 8.99748 80.4219 6.60604 85.6603C4.2146 90.8987 3.65265 96.7887 5.01039 102.385C6.36814 107.981 9.56683 112.958 14.093 116.519C18.6191 120.079 24.2102 122.015 29.9687 122.016ZM29.9687 113.453C25.4268 113.453 21.071 111.649 17.8595 108.437C14.6479 105.226 12.8437 100.87 12.8437 96.3281C12.8437 91.7863 14.6479 87.4305 17.8595 84.2189C21.071 81.0074 25.4268 79.2031 29.9687 79.2031C34.5105 79.2031 38.8663 81.0074 42.0779 84.2189C45.2894 87.4305 47.0937 91.7863 47.0937 96.3281C47.0937 100.87 45.2894 105.226 42.0779 108.437C38.8663 111.649 34.5105 113.453 29.9687 113.453Z" fill="black"/>
</g>
</g>
<defs>
<filter id="filter0_d_352_274" x="0.286133" y="8.5625" width="132.151" height="132.104" filterUnits="userSpaceOnUse" color-interpolation-filters="sRGB">
<feFlood flood-opacity="0" result="BackgroundImageFix"/>
<feColorMatrix in="SourceAlpha" type="matrix" values="0 0 0 0 0 0 0 0 0 0 0 0 0 0 0 0 0 0 127 0" result="hardAlpha"/>
<feOffset dy="4"/>
<feGaussianBlur stdDeviation="2"/>
<feComposite in2="hardAlpha" operator="out"/>
<feColorMatrix type="matrix" values="0 0 0 0 0 0 0 0 0 0 0 0 0 0 0 0 0 0 0.25 0"/>
<feBlend mode="normal" in2="BackgroundImageFix" result="effect1_dropShadow_352_274"/>
<feBlend mode="normal" in="SourceGraphic" in2="effect1_dropShadow_352_274" result="shape"/>
</filter>
<clipPath id="clip0_352_274">
<rect width="137" height="137" fill="white"/>
</clipPath>
</defs>
</svg>
