<svg width="137" height="137" viewBox="0 0 137 137" fill="none" xmlns="http://www.w3.org/2000/svg">
<g filter="url(#filter0_d_352_279)">
<path d="M68.5003 17.125L11.417 68.5H28.542V114.167H108.459V68.5H125.584L68.5003 17.125ZM68.5003 48.5208C81.8578 48.5208 93.9595 53.8296 102.75 62.4492L95.9003 69.185C88.5982 61.9974 78.7462 57.995 68.5003 58.0537C57.7687 58.0537 48.0645 62.2779 41.1003 69.185L34.2503 62.4492C43.3954 53.4896 55.6977 48.4866 68.5003 48.5208ZM68.5003 67.5296C76.492 67.5296 83.7416 70.7262 89.0503 75.9208L82.2003 82.5996C78.539 79.0249 73.6173 77.0357 68.5003 77.0625C63.1345 77.0625 58.2824 79.1746 54.8003 82.5996L47.9503 75.9208C53.4337 70.5354 60.8146 67.5215 68.5003 67.5296ZM68.5003 86.5954C73.8662 86.5954 78.2045 90.8196 78.2045 96.0712C78.2045 101.323 73.8662 105.604 68.5003 105.604C63.1345 105.604 58.7962 101.323 58.7962 96.0712C58.7962 90.8196 63.1345 86.5954 68.5003 86.5954Z" fill="black"/>
</g>
<defs>
<filter id="filter0_d_352_279" x="7.41699" y="17.125" width="122.167" height="105.042" filterUnits="userSpaceOnUse" color-interpolation-filters="sRGB">
<feFlood flood-opacity="0" result="BackgroundImageFix"/>
<feColorMatrix in="SourceAlpha" type="matrix" values="0 0 0 0 0 0 0 0 0 0 0 0 0 0 0 0 0 0 127 0" result="hardAlpha"/>
<feOffset dy="4"/>
<feGaussianBlur stdDeviation="2"/>
<feComposite in2="hardAlpha" operator="out"/>
<feColorMatrix type="matrix" values="0 0 0 0 0 0 0 0 0 0 0 0 0 0 0 0 0 0 0.25 0"/>
<feBlend mode="normal" in2="BackgroundImageFix" result="effect1_dropShadow_352_279"/>
<feBlend mode="normal" in="SourceGraphic" in2="effect1_dropShadow_352_279" result="shape"/>
</filter>
</defs>
</svg>
