<svg width="147" height="147" viewBox="0 0 147 147" fill="none" xmlns="http://www.w3.org/2000/svg">
<path d="M59.9336 75.7968C63.2104 79.1962 64.9255 80.1762 68.0492 80.0537L68.3861 72.3975H73.1942M40.6398 67.1606H56.5342C56.9323 60.3925 60.0561 55.7068 68.1717 54.9106L68.3861 61.9237H73.1942M23.3673 93.6819C23.3673 93.6819 14.9148 93.9575 14.5167 90.8643C13.4465 81.4658 13.5493 71.9706 14.823 62.5975C15.5886 56.2887 26.828 55.5537 29.8598 49.8881C31.0542 47.6219 28.4511 43.5181 30.5948 43.4568C43.7023 42.9668 56.4117 40.7006 65.4767 41.3743C73.4593 41.857 81.2003 44.2972 88.0167 48.4793C95.6117 53.0118 101.767 58.065 108.964 61.9237C116.682 66.0887 126.022 66.9156 131.688 73.5C133.924 76.195 133.893 91.3237 131.29 92.6406C127.376 94.0753 123.175 94.548 119.04 94.0187M47.898 93.6819H72.6736M118.703 93.6819C118.703 96.0623 117.997 98.3892 116.675 100.368C115.352 102.348 113.472 103.89 111.273 104.801C109.074 105.712 106.654 105.951 104.319 105.486C101.985 105.022 99.8401 103.876 98.1569 102.192C96.4736 100.509 95.3274 98.3646 94.863 96.0299C94.3986 93.6952 94.6369 91.2752 95.5479 89.076C96.4588 86.8768 98.0014 84.9971 99.9807 83.6746C101.96 82.3521 104.287 81.6462 106.667 81.6462C109.838 81.6866 112.865 82.9766 115.09 85.2359C117.315 87.4953 118.558 90.5415 118.55 93.7125L118.703 93.6819ZM47.7142 93.6819C47.7142 96.0623 47.0083 98.3892 45.6858 100.368C44.3633 102.348 42.4836 103.89 40.2844 104.801C38.0852 105.712 35.6652 105.951 33.3305 105.486C30.9959 105.022 28.8513 103.876 27.1681 102.192C25.4849 100.509 24.3386 98.3646 23.8742 96.0299C23.4098 93.6952 23.6482 91.2752 24.5591 89.076C25.4701 86.8768 27.0127 84.9971 28.9919 83.6746C30.9712 82.3521 33.2982 81.6462 35.6786 81.6462C38.844 81.6865 41.8661 82.9723 44.0902 85.2251C46.3143 87.4778 47.5613 90.5162 47.5611 93.6819H47.7142Z" stroke="black" stroke-width="8" stroke-linecap="round" stroke-linejoin="round"/>
</svg>
