<svg width="137" height="137" viewBox="0 0 137 137" fill="none" xmlns="http://www.w3.org/2000/svg">
<g clip-path="url(#clip0_352_289)">
<path d="M47.0938 25.6875C43.6874 25.6875 40.4205 27.0407 38.0118 29.4493C35.6032 31.858 34.25 35.1249 34.25 38.5312C34.25 41.9376 35.6032 45.2045 38.0118 47.6132C40.4205 50.0218 43.6874 51.375 47.0938 51.375C50.5001 51.375 53.767 50.0218 56.1757 47.6132C58.5843 45.2045 59.9375 41.9376 59.9375 38.5312C59.9375 35.1249 58.5843 31.858 56.1757 29.4493C53.767 27.0407 50.5001 25.6875 47.0938 25.6875ZM25.6875 38.5312C25.6875 32.854 27.9428 27.4092 31.9572 23.3947C35.9717 19.3803 41.4165 17.125 47.0938 17.125C52.771 17.125 58.2158 19.3803 62.2303 23.3947C66.2447 27.4092 68.5 32.854 68.5 38.5312C68.5 44.2085 66.2447 49.6533 62.2303 53.6678C58.2158 57.6822 52.771 59.9375 47.0938 59.9375C41.4165 59.9375 35.9717 57.6822 31.9572 53.6678C27.9428 49.6533 25.6875 44.2085 25.6875 38.5312ZM98.4688 34.25C96.1978 34.25 94.0199 35.1521 92.4141 36.7579C90.8084 38.3637 89.9062 40.5416 89.9062 42.8125C89.9062 45.0834 90.8084 47.2613 92.4141 48.8671C94.0199 50.4729 96.1978 51.375 98.4688 51.375C93.8931 51.3716 89.3414 52.035 84.9571 53.3444C82.9856 50.8146 81.764 47.7821 81.4317 44.5921C81.0993 41.4021 81.6694 38.1829 83.0771 35.301C84.4848 32.4192 86.6735 29.9906 89.394 28.2918C92.1144 26.5931 95.2572 25.6924 98.4645 25.6924C101.672 25.6924 104.815 26.5931 107.535 28.2918C110.255 29.9906 112.444 32.4192 113.852 35.301C115.26 38.1829 115.83 41.4021 115.497 44.5921C115.165 47.7821 113.943 50.8146 111.972 53.3444C107.59 52.0358 103.042 51.3724 98.4688 51.375C100.74 51.375 102.918 50.4729 104.523 48.8671C106.129 47.2613 107.031 45.0834 107.031 42.8125C107.031 40.5416 106.129 38.3637 104.523 36.7579C102.918 35.1521 100.74 34.25 98.4688 34.25ZM62.1381 68.5H25.6875C22.2811 68.5 19.0143 69.8532 16.6056 72.2618C14.1969 74.6705 12.8438 77.9374 12.8438 81.3438V82.3028C12.8529 82.6949 12.8815 83.0864 12.9294 83.4758C13.4173 87.6269 14.9622 91.5833 17.4161 94.9667C22.1084 101.431 31.0134 107.031 47.0938 107.031C48.8491 107.031 50.5187 106.963 52.1199 106.834C51.6245 104.073 51.3752 101.274 51.375 98.4688V98.3061C49.9506 98.4159 48.5224 98.4701 47.0938 98.4688C33.2054 98.4688 27.126 93.7679 24.3346 89.9319C22.7662 87.7661 21.7707 85.239 21.4405 82.5853C21.4254 82.4486 21.414 82.3116 21.4062 82.1743V81.3438C21.4062 80.2083 21.8573 79.1193 22.6602 78.3164C23.4631 77.5136 24.552 77.0625 25.6875 77.0625H56.5125C58.0794 73.9971 59.9717 71.1287 62.1381 68.5ZM98.4688 137C106.922 136.999 115.14 134.219 121.858 129.087C128.575 123.955 133.418 116.756 135.641 108.6C137.863 100.444 137.342 91.7841 134.158 83.9535C130.973 76.123 125.302 69.557 118.018 65.2673C110.734 60.9776 102.242 59.2023 93.8494 60.215C85.4571 61.2276 77.6306 64.972 71.576 70.8712C65.5215 76.7703 61.5749 84.4968 60.3444 92.8601C59.1139 101.223 60.6679 109.759 64.7668 117.152L60.1002 132.47C59.9195 133.077 59.9061 133.721 60.0614 134.334C60.2166 134.948 60.5348 135.508 60.9823 135.955C61.4297 136.403 61.9898 136.721 62.6032 136.876C63.2166 137.031 63.8606 137.018 64.4671 136.837L79.7939 132.179C85.5067 135.35 91.9348 137.01 98.4688 137ZM77.0625 89.9062C77.0625 88.7708 77.5136 87.6818 78.3164 86.8789C79.1193 86.0761 80.2083 85.625 81.3438 85.625H115.594C116.729 85.625 117.818 86.0761 118.621 86.8789C119.424 87.6818 119.875 88.7708 119.875 89.9062C119.875 91.0417 119.424 92.1307 118.621 92.9336C117.818 93.7364 116.729 94.1875 115.594 94.1875H81.3438C80.2083 94.1875 79.1193 93.7364 78.3164 92.9336C77.5136 92.1307 77.0625 91.0417 77.0625 89.9062ZM81.3438 111.312C80.2083 111.312 79.1193 110.861 78.3164 110.059C77.5136 109.256 77.0625 108.167 77.0625 107.031C77.0625 105.896 77.5136 104.807 78.3164 104.004C79.1193 103.201 80.2083 102.75 81.3438 102.75H98.4688C99.6042 102.75 100.693 103.201 101.496 104.004C102.299 104.807 102.75 105.896 102.75 107.031C102.75 108.167 102.299 109.256 101.496 110.059C100.693 110.861 99.6042 111.312 98.4688 111.312H81.3438Z" fill="black"/>
</g>
<defs>
<clipPath id="clip0_352_289">
<rect width="137" height="137" fill="white"/>
</clipPath>
</defs>
</svg>
