<svg width="279" height="200" viewBox="0 0 279 200" fill="none" xmlns="http://www.w3.org/2000/svg">
<path d="M22.2601 200L3.36772 167.945H41.1525L22.2601 200Z" fill="white"/>
<ellipse cx="22.2603" cy="156.815" rx="22.2603" ry="21.8151" fill="white"/>
<path d="M30.644 146.835H14.3198C13.1975 146.835 12.2895 147.753 12.2895 148.875L12.2793 167.24L16.3603 163.159H30.644C31.7663 163.159 32.6845 162.241 32.6845 161.119V148.875C32.6845 147.753 31.7663 146.835 30.644 146.835ZM28.6035 159.078H16.3603V157.038H28.6035V159.078ZM28.6035 156.017H16.3603V153.977H28.6035V156.017ZM28.6035 152.957H16.3603V150.916H28.6035V152.957Z" fill="black"/>
<path d="M32 141.5C40.5 92.1669 96.9 -3.4998 236.5 18.5002" stroke="white" stroke-width="3"/>
<path d="M113.635 34.3167C146.897 31.9241 216.914 51.0393 221.896 137.439" stroke="white" stroke-width="3"/>
<path d="M256.26 65L237.368 32.9452L275.153 32.9452L256.26 65Z" fill="white"/>
<ellipse cx="256.26" cy="21.8151" rx="22.2603" ry="21.8151" fill="white"/>
<path d="M250.35 25.35L248.25 23.2C249.283 22.1667 250.467 21.375 251.8 20.825C253.133 20.275 254.533 20 256 20C257.467 20 258.871 20.2793 260.213 20.838C261.555 21.3967 262.734 22.2007 263.75 23.25L261.65 25.35C260.9 24.6 260.037 24.021 259.062 23.613C258.087 23.205 257.066 23.0007 256 23C254.933 23 253.913 23.2043 252.938 23.613C251.963 24.0217 251.101 24.6007 250.35 25.35ZM246.1 21.1L244 19C245.583 17.3833 247.413 16.1457 249.488 15.287C251.563 14.4283 253.734 13.9993 256 14C258.267 14 260.438 14.4293 262.513 15.288C264.588 16.1467 266.417 17.384 268 19L265.9 21.1C264.583 19.7833 263.071 18.771 261.362 18.063C259.653 17.355 257.866 17.0007 256 17C254.133 17 252.346 17.3543 250.637 18.063C248.928 18.7717 247.416 19.784 246.1 21.1ZM256 31L252.475 27.45C252.942 26.9833 253.479 26.625 254.088 26.375C254.697 26.125 255.334 26 256 26C256.667 26 257.304 26.125 257.913 26.375C258.522 26.625 259.059 26.9833 259.525 27.45L256 31Z" fill="black"/>
<path d="M221.26 190L202.368 157.945H240.153L221.26 190Z" fill="white"/>
<ellipse cx="221.26" cy="146.815" rx="22.2603" ry="21.8151" fill="white"/>
<path d="M226.9 152.39C226.64 151.59 225.89 151 225 151H224V148C224 147.735 223.895 147.48 223.707 147.293C223.52 147.105 223.265 147 223 147H217V145H219C219.265 145 219.52 144.895 219.707 144.707C219.895 144.52 220 144.265 220 144V142H222C222.53 142 223.039 141.789 223.414 141.414C223.789 141.039 224 140.53 224 140V139.59C225.196 140.072 226.258 140.837 227.094 141.82C227.931 142.802 228.516 143.973 228.801 145.231C229.086 146.489 229.062 147.797 228.731 149.044C228.4 150.291 227.772 151.439 226.9 152.39ZM220 154.93C216.05 154.44 213 151.08 213 147C213 146.38 213.08 145.78 213.21 145.21L218 150V151C218 151.53 218.211 152.039 218.586 152.414C218.961 152.789 219.47 153 220 153M221 137C219.687 137 218.386 137.259 217.173 137.761C215.96 138.264 214.858 139 213.929 139.929C212.054 141.804 211 144.348 211 147C211 149.652 212.054 152.196 213.929 154.071C214.858 155 215.96 155.736 217.173 156.239C218.386 156.741 219.687 157 221 157C223.652 157 226.196 155.946 228.071 154.071C229.946 152.196 231 149.652 231 147C231 145.687 230.741 144.386 230.239 143.173C229.736 141.96 229 140.858 228.071 139.929C227.142 139 226.04 138.264 224.827 137.761C223.614 137.259 222.313 137 221 137Z" fill="black"/>
</svg>
