<svg width="137" height="137" viewBox="0 0 137 137" fill="none" xmlns="http://www.w3.org/2000/svg">
<path d="M107.566 44.9531C106.782 55.8355 98.7093 64.2188 89.906 64.2188C81.1027 64.2188 73.0165 55.8382 72.2459 44.9531C71.4431 33.6319 79.3019 25.6875 89.906 25.6875C100.51 25.6875 108.369 33.8379 107.566 44.9531Z" stroke="white" stroke-width="7" stroke-linecap="round" stroke-linejoin="round"/>
<path d="M89.9062 81.3438C72.4681 81.3438 55.699 90.0053 51.498 106.873C50.9414 109.105 52.3409 111.312 54.634 111.312H125.181C127.474 111.312 128.866 109.105 128.317 106.873C124.116 89.735 107.347 81.3438 89.9062 81.3438Z" stroke="white" stroke-width="7" stroke-miterlimit="10"/>
<path d="M53.516 49.7535C52.8899 58.4444 46.3664 65.2891 39.3344 65.2891C32.3024 65.2891 25.7682 58.4471 25.1528 49.7535C24.5133 40.712 30.8629 34.25 39.3344 34.25C47.8059 34.25 54.1556 40.8779 53.516 49.7535Z" stroke="white" stroke-width="7" stroke-linecap="round" stroke-linejoin="round"/>
<path d="M55.1208 81.8787C50.291 79.6658 44.9715 78.8149 39.3337 78.8149C25.4196 78.8149 12.0139 85.7318 8.65584 99.2044C8.21434 100.986 9.33281 102.75 11.163 102.75H41.2067" stroke="white" stroke-width="7" stroke-miterlimit="10" stroke-linecap="round"/>
</svg>
