<svg width="137" height="137" viewBox="0 0 137 137" fill="none" xmlns="http://www.w3.org/2000/svg">
<path fill-rule="evenodd" clip-rule="evenodd" d="M58.6283 8H70.6842C81.1762 8 89.4875 8 95.9893 8.87338C102.679 9.77529 108.097 11.6705 112.372 15.9403C113.128 16.7519 113.54 17.8253 113.521 18.9344C113.501 20.0436 113.052 21.1018 112.267 21.8862C111.483 22.6706 110.425 23.1199 109.316 23.1395C108.206 23.1591 107.133 22.7474 106.321 21.9911C103.901 19.5822 100.59 18.1323 94.8476 17.3617C88.9852 16.5739 81.2504 16.5625 70.3646 16.5625H58.9479C48.0621 16.5625 40.333 16.5739 34.4592 17.3617C28.7223 18.1323 25.4115 19.5822 22.9968 21.9968C20.5822 24.4115 19.1323 27.7223 18.3617 33.4649C17.5739 39.333 17.5625 47.0621 17.5625 57.9479V80.7812C17.5625 91.667 17.5739 99.4018 18.3617 105.27C19.1323 111.007 20.5822 114.318 22.9968 116.732C25.4115 119.147 28.7223 120.597 34.4649 121.368C40.333 122.155 48.0621 122.167 58.9479 122.167H70.3646C81.2504 122.167 88.9852 122.155 94.8533 121.368C100.59 120.597 103.901 119.147 106.316 116.732C110.289 112.759 111.493 106.589 111.699 92.1351C111.715 90.9997 112.182 89.9173 112.997 89.1262C113.812 88.3351 114.907 87.9 116.043 87.9167C117.178 87.9333 118.26 88.4004 119.052 89.215C119.843 90.0297 120.278 91.1253 120.261 92.2607C120.061 106.115 119.165 115.996 112.372 122.789C108.097 127.059 102.679 128.954 95.9893 129.856C89.4818 130.729 81.1762 130.729 70.6842 130.729H58.6283C48.1363 130.729 39.825 130.729 33.3232 129.856C26.633 128.954 21.2158 127.059 16.9403 122.789C12.6705 118.513 10.7753 113.096 9.87338 106.406C9 99.8985 9 91.5928 9 81.1009V57.6283C9 47.1363 9 38.825 9.87338 32.3232C10.7753 25.633 12.6705 20.2158 16.9403 15.9403C21.2158 11.6705 26.633 9.77529 33.3232 8.87338C39.8307 8 48.1363 8 58.6283 8ZM99.557 41.0855C100.984 39.5917 102.695 38.3982 104.59 37.575C106.485 36.7519 108.525 36.3157 110.59 36.292C112.656 36.2684 114.706 36.6579 116.619 37.4375C118.532 38.2171 120.27 39.3712 121.731 40.832C123.191 42.2927 124.345 44.0307 125.125 45.9438C125.905 47.8568 126.294 49.9064 126.27 51.9721C126.247 54.0378 125.811 56.0779 124.987 57.9727C124.164 59.8674 122.971 61.5785 121.477 63.0055L94.3396 90.16C93.2105 91.3495 92.0095 92.4685 90.7433 93.5108C89.4304 94.5383 88.0033 95.4174 86.4963 96.1367C85.2177 96.7475 83.8705 97.1927 81.8954 97.8492L69.9993 101.816C68.7111 102.247 67.3283 102.311 66.0061 102C64.684 101.688 63.4747 101.014 62.5143 100.054C61.5538 99.0935 60.88 97.8842 60.5687 96.5621C60.2574 95.2399 60.3208 93.8571 60.7518 92.569L64.6391 80.924L64.719 80.6785C65.3812 78.6977 65.8265 77.3562 66.4373 76.0776C67.1558 74.5708 68.0363 73.1468 69.0631 71.8306C69.9365 70.7118 70.9354 69.7128 72.4139 68.2343L72.5908 68.0574L99.557 41.0855ZM115.426 47.1363C114.782 46.4915 114.016 45.98 113.174 45.631C112.332 45.282 111.429 45.1024 110.517 45.1024C109.605 45.1024 108.702 45.282 107.86 45.631C107.018 45.98 106.252 46.4915 105.608 47.1363L104.569 48.1753C104.626 48.3636 104.689 48.5748 104.763 48.786C105.3 50.3273 106.321 52.3823 108.251 54.3117C109.958 56.03 112.068 57.2954 114.387 57.9936L115.426 56.9547C116.071 56.3101 116.583 55.5448 116.932 54.7024C117.281 53.8601 117.46 52.9573 117.46 52.0455C117.46 51.1337 117.281 50.2309 116.932 49.3886C116.583 48.5463 116.071 47.7809 115.426 47.1363ZM107.846 64.5353C105.762 63.4397 103.857 62.0347 102.194 60.3683C100.528 58.7057 99.1229 56.8004 98.0272 54.717L78.6417 74.1025C76.9235 75.8207 76.3184 76.4372 75.8103 77.088C75.1653 77.9157 74.6116 78.8119 74.1606 79.7538C73.8067 80.5015 73.527 81.3178 72.7564 83.624L70.473 90.474L72.0885 92.0895L78.9385 89.8061C81.2447 89.0355 82.061 88.7558 82.8088 88.4019C83.7506 87.9452 84.6468 87.3972 85.4745 86.7522C86.1253 86.2441 86.7418 85.639 88.46 83.9208L107.846 64.5353ZM37.5417 52.2396C37.5417 51.1041 37.9927 50.0152 38.7956 49.2123C39.5985 48.4094 40.6875 47.9583 41.8229 47.9583H78.9271C80.0625 47.9583 81.1515 48.4094 81.9544 49.2123C82.7573 50.0152 83.2083 51.1041 83.2083 52.2396C83.2083 53.375 82.7573 54.464 81.9544 55.2669C81.1515 56.0698 80.0625 56.5208 78.9271 56.5208H41.8229C40.6875 56.5208 39.5985 56.0698 38.7956 55.2669C37.9927 54.464 37.5417 53.375 37.5417 52.2396ZM37.5417 75.0729C37.5417 73.9375 37.9927 72.8485 38.7956 72.0456C39.5985 71.2427 40.6875 70.7917 41.8229 70.7917H56.0938C57.2292 70.7917 58.3182 71.2427 59.1211 72.0456C59.9239 72.8485 60.375 73.9375 60.375 75.0729C60.375 76.2084 59.9239 77.2973 59.1211 78.1002C58.3182 78.9031 57.2292 79.3542 56.0938 79.3542H41.8229C40.6875 79.3542 39.5985 78.9031 38.7956 78.1002C37.9927 77.2973 37.5417 76.2084 37.5417 75.0729ZM37.5417 97.9062C37.5417 96.7708 37.9927 95.6818 38.7956 94.879C39.5985 94.0761 40.6875 93.625 41.8229 93.625H50.3854C51.5209 93.625 52.6098 94.0761 53.4127 94.879C54.2156 95.6818 54.6667 96.7708 54.6667 97.9062C54.6667 99.0417 54.2156 100.131 53.4127 100.934C52.6098 101.736 51.5209 102.188 50.3854 102.188H41.8229C40.6875 102.188 39.5985 101.736 38.7956 100.934C37.9927 100.131 37.5417 99.0417 37.5417 97.9062Z" fill="white"/>
</svg>
