<svg width="137" height="137" viewBox="0 0 137 137" fill="none" xmlns="http://www.w3.org/2000/svg">
<path d="M51.3753 79.9167L85.6253 45.6667M54.2295 48.5208H54.2866M82.7712 77.0625H82.8282M108.459 119.875V28.5417C108.459 25.5138 107.256 22.6099 105.115 20.4689C102.974 18.3278 100.07 17.125 97.042 17.125H39.9587C36.9308 17.125 34.0269 18.3278 31.8859 20.4689C29.7448 22.6099 28.542 25.5138 28.542 28.5417V119.875L48.5212 108.458L68.5003 119.875L88.4795 108.458L108.459 119.875ZM57.0837 48.5208C57.0837 49.2778 56.783 50.0038 56.2477 50.539C55.7124 51.0743 54.9865 51.375 54.2295 51.375C53.4725 51.375 52.7465 51.0743 52.2113 50.539C51.676 50.0038 51.3753 49.2778 51.3753 48.5208C51.3753 47.7639 51.676 47.0379 52.2113 46.5026C52.7465 45.9674 53.4725 45.6667 54.2295 45.6667C54.9865 45.6667 55.7124 45.9674 56.2477 46.5026C56.783 47.0379 57.0837 47.7639 57.0837 48.5208ZM85.6253 77.0625C85.6253 77.8195 85.3246 78.5454 84.7894 79.0807C84.2541 79.616 83.5281 79.9167 82.7712 79.9167C82.0142 79.9167 81.2882 79.616 80.753 79.0807C80.2177 78.5454 79.917 77.8195 79.917 77.0625C79.917 76.3055 80.2177 75.5796 80.753 75.0443C81.2882 74.509 82.0142 74.2083 82.7712 74.2083C83.5281 74.2083 84.2541 74.509 84.7894 75.0443C85.3246 75.5796 85.6253 76.3055 85.6253 77.0625Z" stroke="white" stroke-width="8" stroke-linecap="round" stroke-linejoin="round"/>
</svg>
